<?xml version="1.0" encoding="UTF-8" standalone="no"?>
<!-- Created with Inkscape (http://www.inkscape.org/) -->

<svg
   width="114.60226mm"
   height="110.64575mm"
   viewBox="0 0 114.60226 110.64575"
   version="1.1"
   id="svg1"
   xml:space="preserve"
   xmlns:xlink="http://www.w3.org/1999/xlink"
   xmlns="http://www.w3.org/2000/svg"
   xmlns:svg="http://www.w3.org/2000/svg"><defs
     id="defs1"><linearGradient
       id="linearGradient5606"><stop
         style="stop-color:#ffffff;stop-opacity:1;"
         offset="0"
         id="stop5605" /><stop
         style="stop-color:#ffffff;stop-opacity:0;"
         offset="1"
         id="stop5606" /></linearGradient><linearGradient
       id="linearGradient5590"><stop
         style="stop-color:#ffffff;stop-opacity:1;"
         offset="0.4570576"
         id="stop5590" /><stop
         style="stop-color:#ffffff;stop-opacity:0;"
         offset="1"
         id="stop5591" /></linearGradient><radialGradient
       xlink:href="#linearGradient5590"
       id="radialGradient5591"
       cx="123.37534"
       cy="180.76535"
       fx="123.37534"
       fy="180.76535"
       r="9.1242208"
       gradientTransform="matrix(2.2318841,0,0,1.9275359,-144.71122,-163.43488)"
       gradientUnits="userSpaceOnUse" /><radialGradient
       xlink:href="#linearGradient5606"
       id="radialGradient5604"
       cx="61.357079"
       cy="220.96483"
       fx="61.357079"
       fy="220.96483"
       r="15.074799"
       gradientTransform="matrix(1,0,0,1.1491228,58.177544,-83.464012)"
       gradientUnits="userSpaceOnUse" /></defs><g
     id="layer1"
     transform="translate(-41.357025,-145.59797)"><path
       style="fill:#000000"
       d="m 92.312534,256.08035 c -7.31506,-0.8343 -14.43641,-2.86966 -20.240621,-5.78497 -6.510128,-3.26989 -10.209811,-5.95105 -15.500888,-11.23351 -3.121133,-3.11605 -4.294052,-4.51077 -6.132798,-7.29252 -4.83661,-7.31708 -7.00713,-12.7614 -8.438651,-21.16667 -0.805109,-4.72725 -0.865066,-14.65172 -0.115089,-19.05 1.028604,-6.03229 4.769665,-15.08125 8.602748,-20.80851 9.364518,-13.99215 23.327449,-22.44996 40.766969,-24.69391 3.18919,-0.41036 12.333026,-0.61106 13.761626,-0.30207 0.36199,0.0783 1.37254,0.21331 2.24566,0.30003 3.83767,0.38115 10.3705,2.07179 14.86334,3.8465 3.09781,1.22367 8.80542,4.25302 11.22275,5.95656 6.76694,4.7688 9.4194,9.64852 8.08208,14.86857 -0.53161,2.07508 -3.41901,7.53751 -4.74729,8.981 -2.10615,2.28882 -5.01827,3.38492 -8.50663,3.20183 -3.12084,-0.1638 -4.98366,-1.10114 -7.8542,-3.95211 -3.6517,-3.6268 -8.68077,-6.92579 -13.08497,-8.58352 -4.05969,-1.52807 -9.186766,-2.0355 -13.336536,-1.31994 -13.45031,2.31931 -23.425018,11.62879 -26.665143,24.88682 -0.568195,2.32496 -0.633956,10.52405 -0.103982,12.96458 1.364883,6.28531 4.331701,11.57959 8.999795,16.06015 4.79579,4.60311 9.35997,7.08003 16.04954,8.70989 3.33924,0.81357 9.751096,0.80527 13.229166,-0.0171 6.19305,-1.46436 10.98274,-4.041 15.13633,-8.14266 3.11949,-3.08049 4.55961,-5.59755 4.56932,-7.98632 0.007,-1.70083 -0.71465,-2.84109 -2.29436,-3.62577 -1.27896,-0.63528 -5.72825,-0.63607 -13.44254,-0.002 -13.194576,1.08385 -15.706426,1.26765 -16.147306,1.18157 -0.34644,-0.0676 1.01695,-1.64655 5.16186,-5.97785 7.068266,-7.38609 9.597986,-9.47276 13.636486,-11.24822 3.06898,-1.34922 3.91914,-1.47753 15.20833,-2.29535 1.96454,-0.14232 4.88157,-0.3303 6.4823,-0.41774 3.73412,-0.20398 12.04605,-0.86816 14.94895,-1.19453 1.23693,-0.13907 3.03418,-0.25382 3.99389,-0.25502 1.95197,-0.002 2.42312,0.30112 2.91741,1.8796 0.44507,1.42128 0.52067,12.85661 0.10738,16.24219 -1.53622,12.58446 -5.92918,23.33223 -13.71947,33.56593 -1.85263,2.4337 -8.07476,8.92426 -9.61169,10.02635 -0.55975,0.40138 -1.66936,1.20505 -2.46581,1.78594 -0.79645,0.58088 -1.53808,1.05616 -1.64806,1.05616 -0.10998,0 0.82672,-1.57758 2.08156,-3.50573 2.14001,-3.28827 5.23592,-9.24573 5.06171,-9.74026 -0.0431,-0.12237 -1.22603,0.69455 -2.62871,1.81539 -6.74892,5.39282 -15.85257,9.34652 -24.83404,10.78538 -2.64014,0.42296 -13.255066,0.75089 -15.610416,0.48226 z"
       id="path5589" /><ellipse
       style="fill:url(#radialGradient5591);stroke-width:0.55691"
       id="path5590"
       cx="130.64822"
       cy="184.99684"
       rx="20.364201"
       ry="17.587267" /><path
       style="fill:url(#radialGradient5604);stroke-width:0.264583"
       d="m 104.45981,153.12892 c 30.14953,33.05877 22.4799,34.64559 22.4799,34.64559 l 7.66963,-1.85129"
       id="path5603" /></g></svg>
